<svg xmlns="http://www.w3.org/2000/svg" viewBox="0 0 292.3 292.3"><circle cx="146.2" cy="146.2" r="146.2" fill="#ffef9d"/><path d="M174.3,274c-1.1-.2-1.4-.4-2.7-2s-7.6-10.2-8.2-11.3l5.1-5.8a44.1,44.1,0,0,1,4.4-4.3v-.2h-3.3c-.8,1.2-2,3.1-2.8,4.1s-5.7,7.4-6.1,8v.6l5.7,7.9c.9,1.2,1.7,2.6,2.6,3.8h5.3C174.4,274.8,174.4,274,174.3,274Z" fill="#1a1a18"/><path d="M162.2,274l-2.3-.2V256.6c0-1.4.1-3.9.1-5.2l2.2-.2s.1-.8,0-.8H154c-.1,0-.1.8-.1.8l2.2.2v5.7a9.9,9.9,0,0,0-8.3-4,9.5,9.5,0,0,0-9.1,6c-1.7-4.8-3.1-9-3.2-9h-.8c-10.5,0-16.7,4.2-16.7,11.4,0,4.5,2.4,6.1,4.6,6.1s3.3-1.1,3.3-2.7a2.5,2.5,0,0,0-2.6-2.5c-.2.6-.6,1.2-1.9,1.2s-2.5-.4-2.5-3.3c0-5.8,6.1-9.7,15.2-9.7-2.4,6.7-5.9,16-8.6,23.1l-1.7.4c-.1,0-.1.8,0,.8h5.6s.1-.8,0-.8l-2.4-.4,2.5-6.9h7.8l.4,1.4c.8,2.3,1.3,4.1,1.8,5.5l-2.4.3c-.1,0-.1.8,0,.8h8.4c.1,0,.1-.8,0-.8l-1.8-.3c-.3-.9-.7-2.2-1.3-3.8a11.3,11.3,0,0,0,5.6,1.4,9.4,9.4,0,0,0,8.1-4v1.3c0,1.4,0,3.9-.1,5.1l-2.1.3c-.1,0-.1.8-.1.8h8.3C162.2,274.8,162.2,274,162.2,274Zm-28.8-8.4h-3.5c1.2-3.4,2.5-6.8,3.5-9.5h.2l3.2,9.6Zm14.6,4.9c-4.1,0-7.1-2.6-7.1-8.4s3-8.1,6.9-8.1,7,2.9,7,8.3S151.9,270.5,148,270.5Z" fill="#1a1a18"/><path d="M103.4,28.2h0c2.6-.5,4.2-1.6,4.2-3.6s-1.5-3.5-6.4-3.5H94.5s-.1.9,0,.9l1.4.2V32c0,.9,0,2.3-.1,3.1l-1.3.2s-.1.9,0,.9h7a14.2,14.2,0,0,0,3.9-.5c2-.8,3-1.8,3-3.8S106,28.5,103.4,28.2Zm-2.3,7h-1V22h.9c1.7,0,2.3.7,2.3,2.9s-.5,2.1-1.1,2.4l-1.5.6v.7c2.3.4,3.1,1.2,3.1,3.4S103,35.2,101.1,35.2Z" fill="#1a1a18"/><path d="M114.8,24.9c-3,0-5.6,2.2-5.6,6.1s1.7,5.5,5.6,5.5,4.5-2.1,4.8-2.8.1-.9,0-.8a5.3,5.3,0,0,1-3,1c-1.8,0-3.3-.9-3.4-3.8h6.4C120,27,118.4,24.9,114.8,24.9Zm-.1.9c.8,0,1.1.8,1.1,3.1l-2.6.3C113.3,26.7,113.8,25.8,114.7,25.8Z" fill="#1a1a18"/><path d="M128.8,25.1a1.7,1.7,0,0,0-.9-.2c-1.2,0-2.3,1.3-2.9,2.8h-.1V25h-.2l-4.8.9v.8l1,.3c0,.9.1,1.4.1,2.3v3.5c0,.8-.1,1.8-.1,2.5h-.9c-.1,0-.1.9-.1.9h6.2c.1,0,.1-.9.1-.9h-1.2V28.6a3.8,3.8,0,0,1,2.2-.6,3,3,0,0,1,1.2.3h.2A17.1,17.1,0,0,0,128.8,25.1Z" fill="#1a1a18"/><path d="M134.9,35.3h-.8V20.3a.2.2,0,0,0-.2-.2l-4.9,1v.7l1,.3c0,.9.1,1.5.1,2.3v8.3c0,.8-.1,1.8-.1,2.5h-.9c-.1,0-.1.9-.1.9h5.9S135,35.3,134.9,35.3Z" fill="#1a1a18"/><path d="M141.2,35.3h-.7V25c0-.1-.1-.1-.2-.1l-4.9.9v.8l1,.3c0,.9.1,1.4.1,2.3v3.5c0,.8-.1,1.8-.1,2.5h-.7c-.1,0-.1.9,0,.9h5.5S141.3,35.3,141.2,35.3Z" fill="#1a1a18"/><path d="M138.5,24.3a2,2,0,0,0,2.1-2,2,2,0,0,0-2.1-2,2.1,2.1,0,0,0-2.2,2A2.1,2.1,0,0,0,138.5,24.3Z" fill="#1a1a18"/><path d="M154.5,35.3h-.9V28.3c0-2.7-1.2-3.4-3.2-3.4a4.6,4.6,0,0,0-3.6,1.9h-.1V25h-.2l-4.8.9v.8l1,.3c0,.9.1,1.4.1,2.3v3.5c0,.8-.1,1.8-.1,2.5H142c-.1,0-.1.9,0,.9h5.7c.1,0,.1-.9.1-.9h-1V27.7a2.1,2.1,0,0,1,1.5-.6c.9,0,1.2.4,1.2,1.5v6.6h-.9a3.1,3.1,0,0,0-.1.9h6S154.6,35.4,154.5,35.3Z" fill="#1a1a18"/><path d="M166,25l-2.8,1h-.1a5.5,5.5,0,0,0-3.3-1.1c-2.3,0-5,1.3-5,4.1a4.1,4.1,0,0,0,2.9,3.8h0a2.3,2.3,0,0,0-1.5,2.2c0,1.6,1,2.2,2.7,2.3h3.4c1.2.1,1.4.3,1.4,1s-1.7,1.7-4.2,1.7-3-.5-3-1.5a1.9,1.9,0,0,1,.4-1.2,8.2,8.2,0,0,0-2.3-.2,2.3,2.3,0,0,0-.5,1.4c0,1.5,1.7,2.4,5.4,2.4s6.5-1.9,6.5-4.1-1.3-2.6-2.9-2.7l-3.4-.2c-1,0-1.3-.2-1.3-.7a.4.4,0,0,1,.1-.3h1.3c2.2,0,4.9-1.2,4.9-4a3.7,3.7,0,0,0-.6-2.1l1.9.5A10.5,10.5,0,0,0,166,25Zm-6.2,7.1c-.9,0-1.2-.8-1.2-3.1s.3-3,1.2-3,1.2.8,1.2,3.1S160.6,32.1,159.8,32.1Z" fill="#1a1a18"/><path d="M171.8,28.9c-1.4-.6-2.2-.9-2.2-1.8s.9-1.3,1.6-1.3,2.1,1.1,2.7,2.2h.4a11.3,11.3,0,0,0,0-2.6,7.2,7.2,0,0,0-2.9-.5c-2.4,0-4.8,1.3-4.8,3.9a3.6,3.6,0,0,0,2.6,3.5c2,.9,2.5,1.3,2.5,2.1s-.5,1.2-1.5,1.2-2.6-2-2.9-2.6h-.5a8.8,8.8,0,0,0,0,2.8,8.7,8.7,0,0,0,3.5.7c2.9,0,4.7-1.6,4.7-3.9S173.9,29.9,171.8,28.9Z" fill="#1a1a18"/><path d="M181.3,35.3h-1.1V23.4c0-1.4.1-2.4.1-3.1a.2.2,0,0,0-.2-.2l-4.9,1c-.1,0-.1.7,0,.7l1,.3V35.2h-1s-.1.9,0,.9h6.1S181.4,35.3,181.3,35.3Z" fill="#1a1a18"/><path d="M186.8,34.4a45.9,45.9,0,0,1-3.3-5.6h0a33.7,33.7,0,0,1,3.6-3.2v-.4h-2.9c-1,1.7-1.5,2.5-3.6,5.5v.4A15.3,15.3,0,0,0,182,34a15.1,15.1,0,0,0,1.4,2.1h4.5s.1-.9,0-.9S187.3,35.1,186.8,34.4Z" fill="#1a1a18"/><path d="M197.8,32.9a5.3,5.3,0,0,1-3,1c-1.8,0-3.4-.9-3.5-3.8h6.5c.3-3.1-1.2-5.2-4.8-5.2s-5.6,2.2-5.6,6.1,1.7,5.5,5.5,5.5,4.6-2.1,4.9-2.8S197.9,32.8,197.8,32.9Zm-4.9-7.1c.8,0,1.1.8,1.1,3.1l-2.6.3C191.4,26.7,192,25.8,192.9,25.8Z" fill="#1a1a18"/><path d="M60.3,234c6.1-6.3,9.5-9.9,13.7-14.6,5.9-6.5,9.6-12.3,9.6-19.4,0-9.7-4.2-12.6-9.4-12.6s-7.9,1.6-11.6,5.9h-.8c-.2,0-.3-7.5.2-7.8,3.6-1.6,9-2.7,15.4-2.7,11.7,0,20.8,5.3,20.8,15.5,0,6.8-4.6,12.5-11.2,17.8-4.6,3.8-11.9,9-16.9,12.8v.3h11A97.5,97.5,0,0,0,97.9,228h1.3l-2,12.7H60.7C60.1,240.8,59.9,234.5,60.3,234Z" fill="#fff"/><path d="M101.4,213c0-19.1,10.5-30.2,23.7-30.2s24.6,11.2,24.6,28.7c0,19.1-10.4,30.2-23.7,30.2S101.4,230.5,101.4,213Zm33.5-1.3c0-16.8-2.2-25.5-9.7-25.5s-8.9,9.1-8.9,26.6,2.2,25.5,10,25.5S134.9,229.2,134.9,211.7Z" fill="#fff"/><path d="M150,234c6.2-6.3,9.5-9.9,13.8-14.6,5.8-6.5,9.5-12.3,9.5-19.4,0-9.7-4.1-12.6-9.4-12.6s-7.8,1.6-11.5,5.9h-.9c-.1,0-.2-7.5.3-7.8,3.5-1.6,8.9-2.7,15.4-2.7,11.7,0,20.7,5.3,20.7,15.5,0,6.8-4.5,12.5-11.1,17.8-4.7,3.8-12,9-17,12.8v.3h11a98.8,98.8,0,0,0,16.9-1.2h1.2l-2,12.7H150.5C149.9,240.8,149.6,234.5,150,234Z" fill="#fff"/><path d="M191.5,234c6.2-6.3,9.5-9.9,13.8-14.6,5.8-6.5,9.5-12.3,9.5-19.4,0-9.7-4.1-12.6-9.4-12.6s-7.8,1.6-11.5,5.9H193c-.1,0-.2-7.5.3-7.8,3.5-1.6,8.9-2.7,15.4-2.7,11.7,0,20.7,5.3,20.7,15.5,0,6.8-4.5,12.5-11.1,17.8-4.7,3.8-12,9-17,12.8v.3h11a98.8,98.8,0,0,0,16.9-1.2h1.2l-2,12.7H192C191.4,240.8,191.1,234.5,191.5,234Z" fill="#fff"/><path d="M48.4,104.5l4.7-.8c.2-2.9.2-8.3.2-11.5V54l-5.1-.8a7.6,7.6,0,0,1,.2-2.6H71.3c16.3,0,22.2,4.3,22.2,13.3,0,6.9-5.2,11.3-13.8,13.2v.5c8.6.9,16.9,4.3,16.9,13.6,0,7.2-3.4,10.9-10.5,13.9-3,1.2-8.6,2-13.5,2H48.2A7.6,7.6,0,0,1,48.4,104.5ZM69.5,75.8a12,12,0,0,0,6.4-1.7c2.4-1.5,4.1-3.6,4.1-8.9,0-8.3-3.1-11.3-10.2-11.3H67.7V75.8Zm2.1,28c7,0,10.5-3.9,10.5-12.2S77.3,79.8,67.7,79.5v24.3Z" fill="#1a1a18"/><path d="M100.1,119.8c-.5-.2-.5-7.1-.1-7.1h.8c1.8,1.9,3.4,3.4,6.1,3.4a6.3,6.3,0,0,0,5.6-2.5,12.4,12.4,0,0,0,2.5-4.4L99.7,69.3l-2.5-.6a6.6,6.6,0,0,1-.1-2.4h22.4c.2,0,.2,2.3-.2,2.4l-4.3.6c1.2,3.6,1.6,5.1,3,9.2s3.1,9,4.6,13.2h.2c1.8-4.6,3.2-8.8,4.7-13s2.2-6.5,3-9.3l-4.2-.7c-.3-.1-.2-2.4,0-2.4h10.9a5,5,0,0,1-.2,2.4l-2.6.8c-.9,2.7-1.8,5.2-3.9,10.6l-9.6,24.4a56.5,56.5,0,0,1-5.6,11.1,12.2,12.2,0,0,1-10.1,4.9A21.6,21.6,0,0,1,100.1,119.8Z" fill="#1a1a18"/><path d="M135.7,87.9c0-14.3,9.3-22.5,20.4-22.5,12.9,0,18.7,7.4,17.7,19.3H149.4c.3,10.9,6,14.5,12.9,14.5A17.5,17.5,0,0,0,173.6,95c.4-.3.3,2.5,0,3.1-1.1,2.5-5.5,10-17.6,10C142.1,108.1,135.7,99.6,135.7,87.9Zm13.7-6.6,11.1-1c0-8.7-1.3-11.6-4.6-11.6S149.8,71.9,149.4,81.3Z" fill="#1a1a18"/><path d="M176.5,104.7l3.6-.6c.1-2.4.2-6.4.2-9.6V81c0-3.2-.2-6-.3-9.3a27.4,27.4,0,0,0-3.7-1.1,5,5,0,0,1,0-2.1c7.8-1.5,10.6-2,16.8-3.4a.9.9,0,0,1,.7.6v6.6h.3a18.1,18.1,0,0,1,13.9-6.9c7.2,0,11.4,2.5,11.4,12.3V104l3.7.7c.3.1,0,2.4-.1,2.4H201.7c-.3,0-.1-2.3.1-2.4l3.6-.6c.1-3.3.1-6.4.1-9.6V78.7c0-4.2-1.4-5.9-4.9-5.9a10.4,10.4,0,0,0-6.6,2.3v29.1l3.8.5a6.5,6.5,0,0,1-.1,2.4H176.4C176.1,107.1,176.3,104.7,176.5,104.7Z" fill="#1a1a18"/><path d="M225.9,105.4c-.5-.3-.2-10,0-10h1.2c1.5,2.4,4.8,9.4,11.5,9.4,3.9,0,6-1.2,6-4.6s-2.3-4.7-9.6-7.9c-4.6-2-9.5-5.4-9.5-12.8,0-9.5,8.4-14.1,17-14.1,4.7,0,8.6.7,10.8,1.9.5.3.3,9.3,0,9.3h-1.1c-2.1-4.2-5.3-7.8-10.2-7.8-3.1,0-6.2,1.7-6.2,4.8s2.9,4.6,8.1,6.9c7.4,3.4,11.8,6.8,11.8,13.4,0,8.8-6.5,14.2-16.9,14.2A28.4,28.4,0,0,1,225.9,105.4Z" fill="#1a1a18"/><path d="M24.8,169.5l4.8-.8c.1-2.9.1-8.3.1-11.5V119l-5-.8a7.6,7.6,0,0,1,.1-2.6H47.7c16.4,0,22.3,4.3,22.3,13.3,0,6.9-5.2,11.3-13.8,13.2v.5c8.6.9,16.8,4.3,16.8,13.6,0,7.2-3.3,10.9-10.4,13.9-3,1.2-8.7,2-13.6,2H24.7A7.6,7.6,0,0,1,24.8,169.5ZM46,140.8a11.6,11.6,0,0,0,6.3-1.7c2.4-1.5,4.2-3.6,4.2-8.9,0-8.3-3.1-11.3-10.2-11.3H44.2v21.9Zm2,28c7,0,10.6-3.9,10.6-12.2s-4.8-11.8-14.4-12.1v24.3Z" fill="#1a1a18"/><path d="M76.5,152.9c0-14.3,9.3-22.5,20.4-22.5,12.9,0,18.8,7.4,17.7,19.3H90.2c.3,10.9,6,14.5,13,14.5a17.9,17.9,0,0,0,11.3-4.2c.3-.3.3,2.5,0,3.1-1.2,2.5-5.6,10-17.7,10C83,173.1,76.5,164.6,76.5,152.9Zm13.7-6.6,11.1-1c0-8.7-1.3-11.6-4.6-11.6S90.6,136.9,90.2,146.3Z" fill="#1a1a18"/><path d="M118.1,153.9c0-16,10.7-23.5,21.1-23.5a21,21,0,0,1,6.2.8h.4v-2.1c0-3.2-.1-5.5-.1-8.9l-3.8-1c-.1,0-.2-2.1.1-2.2,7.7-1.5,10.7-2,17-3.4.2,0,.7.4.7.6s-.2,6.8-.2,8.7V167l4.2,1.1c.3.1.3,2,0,2-5.1.7-10.7,1.7-16.2,2.7-.3-.1-1.1-.4-1.2-.6v-5.5h-.4c-1.5,2.2-5.9,6.4-11.9,6.4C124,173.1,118.1,165.8,118.1,153.9Zm27.6,9.7v-27a6.1,6.1,0,0,0-5.2-2.8c-5,0-8,5.5-8,17s3.6,14.8,7.6,14.8A7.5,7.5,0,0,0,145.7,163.6Z" fill="#1a1a18"/><path d="M166.5,170.4c-.5-.3-.2-10,0-10h1.2c1.5,2.4,4.8,9.4,11.5,9.4,3.9,0,6-1.2,6-4.6s-2.3-4.7-9.6-7.9c-4.6-2-9.5-5.4-9.5-12.8,0-9.5,8.4-14.1,17.1-14.1,4.6,0,8.5.7,10.7,1.9.5.3.3,9.3,0,9.3h-1.1c-2.1-4.2-5.3-7.8-10.2-7.8-3.1,0-6.2,1.7-6.2,4.8s2.9,4.6,8.1,6.9c7.4,3.4,11.8,6.8,11.8,13.4,0,8.8-6.5,14.2-16.9,14.2A28.4,28.4,0,0,1,166.5,170.4Z" fill="#1a1a18"/><path d="M203,161.7V136.3h-6.1a3,3,0,0,1,0-2.1c.6-.4,15.9-13.4,16.1-13.5s3.8-.3,3.8.3v10.3h11.1c.4,0-.1,5-.5,5H216.8V160c0,4,1.6,5.8,5.4,5.8a11,11,0,0,0,5.6-1.2c.2-.1.3,2.7.2,3-1.9,2.8-6.1,5.5-12.6,5.5C206.4,173.1,203,168,203,161.7Z" fill="#1a1a18"/><path d="M229.5,152.9c0-14.3,9.3-22.5,20.4-22.5,12.9,0,18.7,7.4,17.7,19.3H243.2c.3,10.9,6,14.5,12.9,14.5a17.5,17.5,0,0,0,11.3-4.2c.4-.3.3,2.5,0,3.1-1.1,2.5-5.5,10-17.6,10C236,173.1,229.5,164.6,229.5,152.9Zm13.7-6.6,11.1-1c0-8.7-1.3-11.6-4.6-11.6S243.6,136.9,243.2,146.3Z" fill="#1a1a18"/><path d="M56,223l2.4-.5c.1-2.1.1-3.9.2-6.6V198.6l-2.8-.3a2.5,2.5,0,0,1,.1-1.2h9.2l11.2,16.5h.1V198.8l-2.5-.5c-.2-.1-.1-1.2,0-1.2h7a5.3,5.3,0,0,1-.1,1.2l-2.3.5c-.1,2.1-.2,3.9-.2,6.6v9.4c0,1.4,0,6.3.2,9.3a7,7,0,0,1-2.5.1L60.6,200.6h-.2v21.9l2.6.5c.1.1.1,1.1-.1,1.1h-7C55.8,224.1,55.9,223.1,56,223Z" fill="#1a1a18"/><path d="M81.5,214.5c0-6.2,4.3-10.2,9.9-10.2s10,3.8,10,10.1-4.2,10.2-9.9,10.2S81.5,220.8,81.5,214.5Zm14.1,0c0-6.8-1.5-8.8-4.2-8.8s-4.1,2.2-4,8.7,1.4,8.8,4.1,8.8S95.6,221,95.6,214.5Z" fill="#1a1a18"/><path d="M126,223.1l1.6-.2c.1-1.5.1-2.9.1-4.4v-7.8c0-2.4-.8-3.2-2.6-3.2a5.8,5.8,0,0,0-3.6,1.2v14.1l1.7.3c.1,0,0,1-.1,1h-9c-.1,0,0-1,.1-1l1.6-.2c.1-1.5.1-2.9.1-4.4v-7.8c0-2.4-.8-3.2-2.5-3.2a5.2,5.2,0,0,0-3.6,1.2v14.2l1.7.2s0,1-.1,1h-9.2c-.1,0,0-1,.1-1l1.8-.2V211.6c0-1.5,0-2.9-.1-4.5l-1.8-.5s-.1-.8,0-.9l7.1-1.5.4.3v3h.1a9.2,9.2,0,0,1,6.8-3.2c2.6,0,4.2.8,4.8,3.2h.1a9.4,9.4,0,0,1,6.8-3.2c3.4,0,5.1,1.3,5.1,5.7v12.8l1.8.3c.1,0,0,1-.1,1h-9.1C125.8,224.1,125.9,223.1,126,223.1Z" fill="#1a1a18"/><path d="M136.4,223.1l1.8-.2V211.6c0-1.5,0-2.9-.1-4.5l-1.8-.5s-.1-.8,0-.9l7.3-1.5a.3.3,0,0,1,.3.3c0,.8-.1,2.8-.1,4.4v14l1.9.2c.1,0,0,1-.1,1h-9.3C136.2,224.1,136.3,223.1,136.4,223.1Zm1.5-23.3a3.1,3.1,0,0,1,6.2,0,3.1,3.1,0,0,1-6.2,0Z" fill="#1a1a18"/><path d="M146.9,223.1l1.8-.2V211.6c0-1.5,0-2.9-.1-4.5l-1.8-.5s-.1-.8,0-.9l7.1-1.5.3.3v3h.1a9.6,9.6,0,0,1,6.9-3.2c3.4,0,5.3,1.3,5.3,5.7v12.8l1.8.3c.2,0,0,1,0,1H159c-.1,0,0-1,.1-1l1.7-.2c.1-1.5.1-2.9.1-4.4v-7.8c0-2.4-.8-3.3-2.7-3.3a6.3,6.3,0,0,0-3.9,1.3v14.2l1.9.2c.1,0,0,1-.1,1h-9.3C146.7,224.1,146.8,223.1,146.9,223.1Z" fill="#1a1a18"/><path d="M169.1,214.9c0-6.6,4.1-10.6,9.4-10.6s8.6,3.5,8.3,9.2H174.7c.1,5.3,2.8,7.4,6.2,7.4a8.5,8.5,0,0,0,5.8-2.1c.2-.2.2.9,0,1.2s-2.9,4.6-8.1,4.6S169.1,220.6,169.1,214.9Zm5.6-2.8,6.5-.5c0-4.3-.9-5.9-2.7-5.9S174.9,207.4,174.7,212.1Z" fill="#1a1a18"/><path d="M187.9,223.1l1.8-.2c.1-1.2.1-2.9.1-4.4v-6.9c0-1.5-.1-2.9-.1-4.5l-1.9-.5a3.1,3.1,0,0,1,.1-.9l7.1-1.5.3.3v4.2h.2c.9-2.3,2.9-4.5,5-4.5a3,3,0,0,1,1.8.4,34.6,34.6,0,0,1-.2,4.6h-.3a5.1,5.1,0,0,0-2.2-.5,5.5,5.5,0,0,0-4.1,1.5v12.7l2.2.2c.1,0,0,1,0,1h-9.7A1.7,1.7,0,0,1,187.9,223.1Z" fill="#1a1a18"/><path d="M202.8,214.9c0-6.6,4.2-10.6,9.5-10.6s8.6,3.5,8.2,9.2H208.4c.1,5.3,2.8,7.4,6.3,7.4a8.4,8.4,0,0,0,5.7-2.1c.2-.2.2.9.1,1.2a8.8,8.8,0,0,1-8.2,4.6C206.1,224.6,202.8,220.6,202.8,214.9Zm5.6-2.8,6.5-.5c0-4.3-.8-5.9-2.7-5.9S208.7,207.4,208.4,212.1Z" fill="#1a1a18"/><path d="M223.6,219.3V206.9h-2.9c-.1,0-.1-.8,0-.9l7.2-6c.2-.3,1.4-.1,1.4.1v4.6h5.4a4.2,4.2,0,0,1-.2,2.2h-5.2v11.8c0,1.9.7,2.9,2.6,2.9a6.4,6.4,0,0,0,2.9-.7c.1-.1.1,1.1,0,1.2s-2.8,2.5-5.6,2.5S223.6,222.3,223.6,219.3Z" fill="#1a1a18"/></svg>